<?xml version="1.0" encoding="UTF-8" standalone="no"?>
<!DOCTYPE svg PUBLIC "-//W3C//DTD SVG 1.1//EN"
 "http://www.w3.org/Graphics/SVG/1.1/DTD/svg11.dtd">
<!-- Generated by graphviz version 2.40.1 (20161225.0304)
 -->
<!-- Title: dependencies Pages: 1 -->
<svg width="3112pt" height="442pt"
 viewBox="0.00 0.00 3112.00 442.00" xmlns="http://www.w3.org/2000/svg" xmlns:xlink="http://www.w3.org/1999/xlink">
<g id="graph0" class="graph" transform="scale(1 1) rotate(0) translate(4 438)">
<title>dependencies</title>
<polygon fill="#ffffff" stroke="transparent" points="-4,4 -4,-438 3108,-438 3108,4 -4,4"/>
<text text-anchor="start" x="1531.0091" y="-42.4" font-family="sans-serif" font-weight="bold" font-size="14.00" fill="#000000">Legend</text>
<polygon fill="#ffffb3" stroke="transparent" points="1318,-10 1318,-30 1338,-30 1338,-10 1318,-10"/>
<text text-anchor="start" x="1341.629" y="-15.4" font-family="sans-serif" font-size="14.00" fill="#000000"> &#160;Declarations</text>
<polygon fill="#8dd3c7" stroke="transparent" points="1431,-10 1431,-30 1451,-30 1451,-10 1431,-10"/>
<text text-anchor="start" x="1454.7251" y="-15.4" font-family="sans-serif" font-size="14.00" fill="#000000"> &#160;Module</text>
<polygon fill="#80b1d3" stroke="transparent" points="1517,-10 1517,-30 1537,-30 1537,-10 1517,-10"/>
<text text-anchor="start" x="1540.7812" y="-15.4" font-family="sans-serif" font-size="14.00" fill="#000000"> &#160;Bootstrap</text>
<polygon fill="#fdb462" stroke="transparent" points="1614,-10 1614,-30 1634,-30 1634,-10 1614,-10"/>
<text text-anchor="start" x="1637.6732" y="-15.4" font-family="sans-serif" font-size="14.00" fill="#000000"> &#160;Providers</text>
<polygon fill="#fb8072" stroke="transparent" points="1710,-10 1710,-30 1730,-30 1730,-10 1710,-10"/>
<text text-anchor="start" x="1733.7258" y="-15.4" font-family="sans-serif" font-size="14.00" fill="#000000"> &#160;Exports</text>
<g id="clust1" class="cluster">
<title>cluster_AppModule</title>
<polygon fill="none" stroke="#000000" stroke-dasharray="1,5" points="470,-146 470,-426 1143,-426 1143,-146 470,-146"/>
</g>
<g id="clust2" class="cluster">
<title>cluster_AppModule_declarations</title>
<polygon fill="none" stroke="#000000" points="1013,-230 1013,-282 1135,-282 1135,-230 1013,-230"/>
</g>
<g id="clust4" class="cluster">
<title>cluster_AppModule_imports</title>
<polygon fill="none" stroke="#000000" points="478,-154 478,-282 1005,-282 1005,-154 478,-154"/>
</g>
<g id="clust6" class="cluster">
<title>cluster_AppModule_bootstrap</title>
<polygon fill="none" stroke="#000000" points="680,-366 680,-418 804,-418 804,-366 680,-366"/>
</g>
<g id="clust20" class="cluster">
<title>cluster_HomeModule</title>
<polygon fill="none" stroke="#000000" stroke-dasharray="1,5" points="8,-146 8,-214 462,-214 462,-146 8,-146"/>
</g>
<g id="clust21" class="cluster">
<title>cluster_HomeModule_declarations</title>
<polygon fill="none" stroke="#000000" points="322,-154 322,-206 454,-206 454,-154 322,-154"/>
</g>
<g id="clust23" class="cluster">
<title>cluster_HomeModule_imports</title>
<polygon fill="none" stroke="#000000" points="160,-154 160,-206 314,-206 314,-154 160,-154"/>
</g>
<g id="clust24" class="cluster">
<title>cluster_HomeModule_exports</title>
<polygon fill="none" stroke="#000000" points="16,-154 16,-206 152,-206 152,-154 16,-154"/>
</g>
<g id="clust33" class="cluster">
<title>cluster_ItemsModule</title>
<polygon fill="none" stroke="#000000" stroke-dasharray="1,5" points="2407,-146 2407,-358 3096,-358 3096,-146 2407,-146"/>
</g>
<g id="clust34" class="cluster">
<title>cluster_ItemsModule_declarations</title>
<polygon fill="none" stroke="#000000" points="2575,-154 2575,-206 3088,-206 3088,-154 2575,-154"/>
</g>
<g id="clust39" class="cluster">
<title>cluster_ItemsModule_imports</title>
<polygon fill="none" stroke="#000000" points="2415,-154 2415,-206 2567,-206 2567,-154 2415,-154"/>
</g>
<g id="clust40" class="cluster">
<title>cluster_ItemsModule_exports</title>
<polygon fill="none" stroke="#000000" points="2620,-298 2620,-350 2774,-350 2774,-298 2620,-298"/>
</g>
<g id="clust49" class="cluster">
<title>cluster_PageNotFoundModule</title>
<polygon fill="none" stroke="#000000" stroke-dasharray="1,5" points="507,-70 507,-138 1109,-138 1109,-70 507,-70"/>
</g>
<g id="clust50" class="cluster">
<title>cluster_PageNotFoundModule_declarations</title>
<polygon fill="none" stroke="#000000" points="919,-78 919,-130 1101,-130 1101,-78 919,-78"/>
</g>
<g id="clust52" class="cluster">
<title>cluster_PageNotFoundModule_imports</title>
<polygon fill="none" stroke="#000000" points="707,-78 707,-130 911,-130 911,-78 707,-78"/>
</g>
<g id="clust53" class="cluster">
<title>cluster_PageNotFoundModule_exports</title>
<polygon fill="none" stroke="#000000" points="515,-78 515,-130 699,-130 699,-78 515,-78"/>
</g>
<g id="clust62" class="cluster">
<title>cluster_SharedModule</title>
<polygon fill="none" stroke="#000000" stroke-dasharray="1,5" points="1151,-222 1151,-290 2399,-290 2399,-222 1151,-222"/>
</g>
<g id="clust63" class="cluster">
<title>cluster_SharedModule_declarations</title>
<polygon fill="none" stroke="#000000" points="1786,-230 1786,-282 2391,-282 2391,-230 1786,-230"/>
</g>
<g id="clust69" class="cluster">
<title>cluster_SharedModule_exports</title>
<polygon fill="none" stroke="#000000" points="1159,-230 1159,-282 1778,-282 1778,-230 1159,-230"/>
</g>
<!-- AppComponent -->
<g id="node1" class="node">
<title>AppComponent</title>
<polygon fill="#ffffb3" stroke="#000000" points="1126.9399,-274 1021.0601,-274 1021.0601,-238 1126.9399,-238 1126.9399,-274"/>
<text text-anchor="middle" x="1074" y="-251.8" font-family="Times,serif" font-size="14.00" fill="#000000">AppComponent</text>
</g>
<!-- AppModule -->
<g id="node2" class="node">
<title>AppModule</title>
<polygon fill="#8dd3c7" stroke="#000000" points="783.6571,-342 780.6571,-346 759.6571,-346 756.6571,-342 700.3429,-342 700.3429,-306 783.6571,-306 783.6571,-342"/>
<text text-anchor="middle" x="742" y="-319.8" font-family="Times,serif" font-size="14.00" fill="#000000">AppModule</text>
</g>
<!-- AppComponent&#45;&gt;AppModule -->
<g id="edge1" class="edge">
<title>AppComponent&#45;&gt;AppModule</title>
<path fill="none" stroke="#000000" d="M1021.0993,-256C933.6026,-256 768.2952,-256 768.2952,-256 768.2952,-256 768.2952,-295.7772 768.2952,-295.7772"/>
<polygon fill="#000000" stroke="#000000" points="764.7953,-295.7772 768.2952,-305.7772 771.7953,-295.7773 764.7953,-295.7772"/>
</g>
<!-- AppComponent  -->
<g id="node8" class="node">
<title>AppComponent </title>
<polygon fill="#80b1d3" stroke="#000000" points="796.439,-410 687.561,-410 687.561,-374 796.439,-374 796.439,-410"/>
<text text-anchor="middle" x="742" y="-387.8" font-family="Times,serif" font-size="14.00" fill="#000000">AppComponent </text>
</g>
<!-- AppModule&#45;&gt;AppComponent  -->
<g id="edge7" class="edge">
<title>AppModule&#45;&gt;AppComponent </title>
<path fill="none" stroke="#000000" stroke-dasharray="1,5" d="M742,-342.2228C742,-342.2228 742,-363.7269 742,-363.7269"/>
<polygon fill="#000000" stroke="#000000" points="738.5001,-363.7269 742,-373.7269 745.5001,-363.727 738.5001,-363.7269"/>
</g>
<!-- AppRoutingModule -->
<g id="node3" class="node">
<title>AppRoutingModule</title>
<polygon fill="#8dd3c7" stroke="#000000" points="614.2744,-198 611.2744,-202 590.2744,-202 587.2744,-198 485.7256,-198 485.7256,-162 614.2744,-162 614.2744,-198"/>
<text text-anchor="middle" x="550" y="-175.8" font-family="Times,serif" font-size="14.00" fill="#000000">AppRoutingModule</text>
</g>
<!-- AppRoutingModule&#45;&gt;AppModule -->
<g id="edge2" class="edge">
<title>AppRoutingModule&#45;&gt;AppModule</title>
<path fill="none" stroke="#000000" d="M597.134,-198.2377C597.134,-236.9861 597.134,-324 597.1339,-324 597.1339,-324 690.0987,-324 690.0987,-324"/>
<polygon fill="#000000" stroke="#000000" points="690.0988,-327.5001 700.0987,-324 690.0987,-320.5001 690.0988,-327.5001"/>
</g>
<!-- CoreModule -->
<g id="node4" class="node">
<title>CoreModule</title>
<polygon fill="#8dd3c7" stroke="#000000" points="719.2619,-198 716.2619,-202 695.2619,-202 692.2619,-198 632.7381,-198 632.7381,-162 719.2619,-162 719.2619,-198"/>
<text text-anchor="middle" x="676" y="-175.8" font-family="Times,serif" font-size="14.00" fill="#000000">CoreModule</text>
</g>
<!-- CoreModule&#45;&gt;AppModule -->
<g id="edge3" class="edge">
<title>CoreModule&#45;&gt;AppModule</title>
<path fill="none" stroke="#000000" d="M712.9778,-198.2377C712.9778,-198.2377 712.9778,-295.9104 712.9778,-295.9104"/>
<polygon fill="#000000" stroke="#000000" points="709.4779,-295.9103 712.9778,-305.9104 716.4779,-295.9104 709.4779,-295.9103"/>
</g>
<!-- HomeModule -->
<g id="node5" class="node">
<title>HomeModule</title>
<polygon fill="#8dd3c7" stroke="#000000" points="579.7619,-274 576.7619,-278 555.7619,-278 552.7619,-274 486.2381,-274 486.2381,-238 579.7619,-238 579.7619,-274"/>
<text text-anchor="middle" x="533" y="-251.8" font-family="Times,serif" font-size="14.00" fill="#000000">HomeModule</text>
</g>
<!-- HomeModule&#45;&gt;AppModule -->
<g id="edge4" class="edge">
<title>HomeModule&#45;&gt;AppModule</title>
<path fill="none" stroke="#000000" d="M579.9718,-265C631.3768,-265 706.5748,-265 706.5748,-265 706.5748,-265 706.5748,-295.9775 706.5748,-295.9775"/>
<polygon fill="#000000" stroke="#000000" points="703.0749,-295.9774 706.5748,-305.9775 710.0749,-295.9775 703.0749,-295.9774"/>
</g>
<!-- HomeComponent  -->
<g id="node11" class="node">
<title>HomeComponent </title>
<polygon fill="#fb8072" stroke="#000000" points="143.5442,-198 24.4558,-198 24.4558,-162 143.5442,-162 143.5442,-198"/>
<text text-anchor="middle" x="84" y="-175.8" font-family="Times,serif" font-size="14.00" fill="#000000">HomeComponent </text>
</g>
<!-- HomeModule&#45;&gt;HomeComponent  -->
<g id="edge11" class="edge">
<title>HomeModule&#45;&gt;HomeComponent </title>
<path fill="none" stroke="#000000" stroke-dasharray="5,2" d="M486.2198,-265C371.2197,-265 84,-265 84,-265 84,-265 84,-208.0263 84,-208.0263"/>
<polygon fill="#000000" stroke="#000000" points="87.5001,-208.0263 84,-198.0263 80.5001,-208.0263 87.5001,-208.0263"/>
</g>
<!-- PageNotFoundModule -->
<g id="node6" class="node">
<title>PageNotFoundModule</title>
<polygon fill="#8dd3c7" stroke="#000000" points="880.5421,-198 877.5421,-202 856.5421,-202 853.5421,-198 737.4579,-198 737.4579,-162 880.5421,-162 880.5421,-198"/>
<text text-anchor="middle" x="809" y="-175.8" font-family="Times,serif" font-size="14.00" fill="#000000">PageNotFoundModule</text>
</g>
<!-- PageNotFoundModule&#45;&gt;AppModule -->
<g id="edge5" class="edge">
<title>PageNotFoundModule&#45;&gt;AppModule</title>
<path fill="none" stroke="#000000" d="M752.7623,-198.2377C752.7623,-198.2377 752.7623,-295.9104 752.7623,-295.9104"/>
<polygon fill="#000000" stroke="#000000" points="749.2624,-295.9103 752.7623,-305.9104 756.2624,-295.9104 749.2624,-295.9103"/>
</g>
<!-- PageNotFoundComponent  -->
<g id="node21" class="node">
<title>PageNotFoundComponent </title>
<polygon fill="#fb8072" stroke="#000000" points="691.3241,-122 522.6759,-122 522.6759,-86 691.3241,-86 691.3241,-122"/>
<text text-anchor="middle" x="607" y="-99.8" font-family="Times,serif" font-size="14.00" fill="#000000">PageNotFoundComponent </text>
</g>
<!-- PageNotFoundModule&#45;&gt;PageNotFoundComponent  -->
<g id="edge21" class="edge">
<title>PageNotFoundModule&#45;&gt;PageNotFoundComponent </title>
<path fill="none" stroke="#000000" stroke-dasharray="5,2" d="M773.1147,-161.8495C773.1147,-149.7292 773.1147,-136 773.1147,-136 773.1147,-136 662.0156,-136 662.0156,-136 662.0156,-136 662.0156,-132.2434 662.0156,-132.2434"/>
<polygon fill="#000000" stroke="#000000" points="665.5157,-132.2434 662.0156,-122.2434 658.5157,-132.2434 665.5157,-132.2434"/>
</g>
<!-- SharedModule -->
<g id="node7" class="node">
<title>SharedModule</title>
<polygon fill="#8dd3c7" stroke="#000000" points="997.4231,-198 994.4231,-202 973.4231,-202 970.4231,-198 898.5769,-198 898.5769,-162 997.4231,-162 997.4231,-198"/>
<text text-anchor="middle" x="948" y="-175.8" font-family="Times,serif" font-size="14.00" fill="#000000">SharedModule</text>
</g>
<!-- SharedModule&#45;&gt;AppModule -->
<g id="edge6" class="edge">
<title>SharedModule&#45;&gt;AppModule</title>
<path fill="none" stroke="#000000" d="M964.4037,-198.2377C964.4037,-236.9861 964.4037,-324 964.4037,-324 964.4037,-324 793.8324,-324 793.8324,-324"/>
<polygon fill="#000000" stroke="#000000" points="793.8325,-320.5001 783.8324,-324 793.8324,-327.5001 793.8325,-320.5001"/>
</g>
<!-- SharedModule&#45;&gt;HomeModule -->
<g id="edge10" class="edge">
<title>SharedModule&#45;&gt;HomeModule</title>
<path fill="none" stroke="#000000" d="M931.5963,-198.308C931.5963,-218.1455 931.5963,-247 931.5963,-247 931.5963,-247 589.8962,-247 589.8962,-247"/>
<polygon fill="#000000" stroke="#000000" points="589.8962,-243.5001 579.8962,-247 589.8961,-250.5001 589.8962,-243.5001"/>
</g>
<!-- ItemsModule -->
<g id="node16" class="node">
<title>ItemsModule</title>
<polygon fill="#8dd3c7" stroke="#000000" points="2742.1515,-274 2739.1515,-278 2718.1515,-278 2715.1515,-274 2651.8485,-274 2651.8485,-238 2742.1515,-238 2742.1515,-274"/>
<text text-anchor="middle" x="2697" y="-251.8" font-family="Times,serif" font-size="14.00" fill="#000000">ItemsModule</text>
</g>
<!-- SharedModule&#45;&gt;ItemsModule -->
<g id="edge17" class="edge">
<title>SharedModule&#45;&gt;ItemsModule</title>
<path fill="none" stroke="#000000" d="M997.2517,-166C1251.451,-166 2403.2213,-166 2403.2213,-166 2403.2213,-166 2403.2213,-262 2403.2213,-262 2403.2213,-262 2641.7409,-262 2641.7409,-262"/>
<polygon fill="#000000" stroke="#000000" points="2641.7409,-265.5001 2651.7409,-262 2641.7409,-258.5001 2641.7409,-265.5001"/>
</g>
<!-- FormComponent  -->
<g id="node26" class="node">
<title>FormComponent </title>
<polygon fill="#fb8072" stroke="#000000" points="1461.6663,-274 1346.3337,-274 1346.3337,-238 1461.6663,-238 1461.6663,-274"/>
<text text-anchor="middle" x="1404" y="-251.8" font-family="Times,serif" font-size="14.00" fill="#000000">FormComponent </text>
</g>
<!-- SharedModule&#45;&gt;FormComponent  -->
<g id="edge26" class="edge">
<title>SharedModule&#45;&gt;FormComponent </title>
<path fill="none" stroke="#000000" stroke-dasharray="5,2" d="M997.2332,-191C1115.1448,-191 1404,-191 1404,-191 1404,-191 1404,-227.8939 1404,-227.8939"/>
<polygon fill="#000000" stroke="#000000" points="1400.5001,-227.8938 1404,-237.8939 1407.5001,-227.8939 1400.5001,-227.8938"/>
</g>
<!-- FormConnectComponent  -->
<g id="node27" class="node">
<title>FormConnectComponent </title>
<polygon fill="#fb8072" stroke="#000000" points="1328.8227,-274 1167.1773,-274 1167.1773,-238 1328.8227,-238 1328.8227,-274"/>
<text text-anchor="middle" x="1248" y="-251.8" font-family="Times,serif" font-size="14.00" fill="#000000">FormConnectComponent </text>
</g>
<!-- SharedModule&#45;&gt;FormConnectComponent  -->
<g id="edge27" class="edge">
<title>SharedModule&#45;&gt;FormConnectComponent </title>
<path fill="none" stroke="#000000" stroke-dasharray="5,2" d="M997.5389,-195C1082.7473,-195 1248,-195 1248,-195 1248,-195 1248,-227.698 1248,-227.698"/>
<polygon fill="#000000" stroke="#000000" points="1244.5001,-227.698 1248,-237.698 1251.5001,-227.698 1244.5001,-227.698"/>
</g>
<!-- NavComponent  -->
<g id="node28" class="node">
<title>NavComponent </title>
<polygon fill="#fb8072" stroke="#000000" points="1770.1537,-274 1661.8463,-274 1661.8463,-238 1770.1537,-238 1770.1537,-274"/>
<text text-anchor="middle" x="1716" y="-251.8" font-family="Times,serif" font-size="14.00" fill="#000000">NavComponent </text>
</g>
<!-- SharedModule&#45;&gt;NavComponent  -->
<g id="edge28" class="edge">
<title>SharedModule&#45;&gt;NavComponent </title>
<path fill="none" stroke="#000000" stroke-dasharray="5,2" d="M997.5041,-184C1167.3499,-184 1716,-184 1716,-184 1716,-184 1716,-227.8314 1716,-227.8314"/>
<polygon fill="#000000" stroke="#000000" points="1712.5001,-227.8313 1716,-237.8314 1719.5001,-227.8314 1712.5001,-227.8313"/>
</g>
<!-- ReactiveFormComponent  -->
<g id="node29" class="node">
<title>ReactiveFormComponent </title>
<polygon fill="#fb8072" stroke="#000000" points="1644.1425,-274 1479.8575,-274 1479.8575,-238 1644.1425,-238 1644.1425,-274"/>
<text text-anchor="middle" x="1562" y="-251.8" font-family="Times,serif" font-size="14.00" fill="#000000">ReactiveFormComponent </text>
</g>
<!-- SharedModule&#45;&gt;ReactiveFormComponent  -->
<g id="edge29" class="edge">
<title>SharedModule&#45;&gt;ReactiveFormComponent </title>
<path fill="none" stroke="#000000" stroke-dasharray="5,2" d="M997.4669,-188C1143.4034,-188 1562,-188 1562,-188 1562,-188 1562,-227.7772 1562,-227.7772"/>
<polygon fill="#000000" stroke="#000000" points="1558.5001,-227.7772 1562,-237.7772 1565.5001,-227.7773 1558.5001,-227.7772"/>
</g>
<!-- HomeComponent -->
<g id="node9" class="node">
<title>HomeComponent</title>
<polygon fill="#ffffb3" stroke="#000000" points="445.5451,-198 330.4549,-198 330.4549,-162 445.5451,-162 445.5451,-198"/>
<text text-anchor="middle" x="388" y="-175.8" font-family="Times,serif" font-size="14.00" fill="#000000">HomeComponent</text>
</g>
<!-- HomeComponent&#45;&gt;HomeModule -->
<g id="edge8" class="edge">
<title>HomeComponent&#45;&gt;HomeModule</title>
<path fill="none" stroke="#000000" d="M388,-198.308C388,-218.1455 388,-247 388,-247 388,-247 475.9227,-247 475.9227,-247"/>
<polygon fill="#000000" stroke="#000000" points="475.9227,-250.5001 485.9227,-247 475.9226,-243.5001 475.9227,-250.5001"/>
</g>
<!-- HomeRoutingModule -->
<g id="node10" class="node">
<title>HomeRoutingModule</title>
<polygon fill="#8dd3c7" stroke="#000000" points="306.3795,-198 303.3795,-202 282.3795,-202 279.3795,-198 167.6205,-198 167.6205,-162 306.3795,-162 306.3795,-198"/>
<text text-anchor="middle" x="237" y="-175.8" font-family="Times,serif" font-size="14.00" fill="#000000">HomeRoutingModule</text>
</g>
<!-- HomeRoutingModule&#45;&gt;HomeModule -->
<g id="edge9" class="edge">
<title>HomeRoutingModule&#45;&gt;HomeModule</title>
<path fill="none" stroke="#000000" d="M237,-198.0109C237,-220.4852 237,-256 237,-256 237,-256 476.0979,-256 476.0979,-256"/>
<polygon fill="#000000" stroke="#000000" points="476.098,-259.5001 486.0979,-256 476.0979,-252.5001 476.098,-259.5001"/>
</g>
<!-- AddComponent -->
<g id="node12" class="node">
<title>AddComponent</title>
<polygon fill="#ffffb3" stroke="#000000" points="3079.9399,-198 2974.0601,-198 2974.0601,-162 3079.9399,-162 3079.9399,-198"/>
<text text-anchor="middle" x="3027" y="-175.8" font-family="Times,serif" font-size="14.00" fill="#000000">AddComponent</text>
</g>
<!-- AddComponent&#45;&gt;ItemsModule -->
<g id="edge12" class="edge">
<title>AddComponent&#45;&gt;ItemsModule</title>
<path fill="none" stroke="#000000" d="M3027,-198.1985C3027,-222.3563 3027,-262 3027,-262 3027,-262 2752.1932,-262 2752.1932,-262"/>
<polygon fill="#000000" stroke="#000000" points="2752.1932,-258.5001 2742.1932,-262 2752.1931,-265.5001 2752.1932,-258.5001"/>
</g>
<!-- ItemComponent -->
<g id="node13" class="node">
<title>ItemComponent</title>
<polygon fill="#ffffb3" stroke="#000000" points="2956.4888,-198 2849.5112,-198 2849.5112,-162 2956.4888,-162 2956.4888,-198"/>
<text text-anchor="middle" x="2903" y="-175.8" font-family="Times,serif" font-size="14.00" fill="#000000">ItemComponent</text>
</g>
<!-- ItemComponent&#45;&gt;ItemsModule -->
<g id="edge13" class="edge">
<title>ItemComponent&#45;&gt;ItemsModule</title>
<path fill="none" stroke="#000000" d="M2903,-198.0267C2903,-218.7672 2903,-250 2903,-250 2903,-250 2752.2076,-250 2752.2076,-250"/>
<polygon fill="#000000" stroke="#000000" points="2752.2076,-246.5001 2742.2076,-250 2752.2075,-253.5001 2752.2076,-246.5001"/>
</g>
<!-- ListItemsComponent -->
<g id="node14" class="node">
<title>ListItemsComponent</title>
<polygon fill="#ffffb3" stroke="#000000" points="2831.212,-198 2696.788,-198 2696.788,-162 2831.212,-162 2831.212,-198"/>
<text text-anchor="middle" x="2764" y="-175.8" font-family="Times,serif" font-size="14.00" fill="#000000">ListItemsComponent</text>
</g>
<!-- ListItemsComponent&#45;&gt;ItemsModule -->
<g id="edge14" class="edge">
<title>ListItemsComponent&#45;&gt;ItemsModule</title>
<path fill="none" stroke="#000000" d="M2719.6098,-198.0109C2719.6098,-198.0109 2719.6098,-227.855 2719.6098,-227.855"/>
<polygon fill="#000000" stroke="#000000" points="2716.1098,-227.8549 2719.6098,-237.855 2723.1098,-227.855 2716.1098,-227.8549"/>
</g>
<!-- StateDirective -->
<g id="node15" class="node">
<title>StateDirective</title>
<polygon fill="#ffffb3" stroke="#000000" points="2679.0758,-198 2582.9242,-198 2582.9242,-162 2679.0758,-162 2679.0758,-198"/>
<text text-anchor="middle" x="2631" y="-175.8" font-family="Times,serif" font-size="14.00" fill="#000000">StateDirective</text>
</g>
<!-- StateDirective&#45;&gt;ItemsModule -->
<g id="edge15" class="edge">
<title>StateDirective&#45;&gt;ItemsModule</title>
<path fill="none" stroke="#000000" d="M2665.3563,-198.0109C2665.3563,-198.0109 2665.3563,-227.855 2665.3563,-227.855"/>
<polygon fill="#000000" stroke="#000000" points="2661.8563,-227.8549 2665.3563,-237.855 2668.8563,-227.855 2661.8563,-227.8549"/>
</g>
<!-- ListItemsComponent  -->
<g id="node18" class="node">
<title>ListItemsComponent </title>
<polygon fill="#fb8072" stroke="#000000" points="2765.7121,-342 2628.2879,-342 2628.2879,-306 2765.7121,-306 2765.7121,-342"/>
<text text-anchor="middle" x="2697" y="-319.8" font-family="Times,serif" font-size="14.00" fill="#000000">ListItemsComponent </text>
</g>
<!-- ItemsModule&#45;&gt;ListItemsComponent  -->
<g id="edge18" class="edge">
<title>ItemsModule&#45;&gt;ListItemsComponent </title>
<path fill="none" stroke="#000000" stroke-dasharray="5,2" d="M2697,-274.2228C2697,-274.2228 2697,-295.7269 2697,-295.7269"/>
<polygon fill="#000000" stroke="#000000" points="2693.5001,-295.7269 2697,-305.7269 2700.5001,-295.727 2693.5001,-295.7269"/>
</g>
<!-- ItemsRoutingModule -->
<g id="node17" class="node">
<title>ItemsRoutingModule</title>
<polygon fill="#8dd3c7" stroke="#000000" points="2558.7688,-198 2555.7688,-202 2534.7688,-202 2531.7688,-198 2423.2312,-198 2423.2312,-162 2558.7688,-162 2558.7688,-198"/>
<text text-anchor="middle" x="2491" y="-175.8" font-family="Times,serif" font-size="14.00" fill="#000000">ItemsRoutingModule</text>
</g>
<!-- ItemsRoutingModule&#45;&gt;ItemsModule -->
<g id="edge16" class="edge">
<title>ItemsRoutingModule&#45;&gt;ItemsModule</title>
<path fill="none" stroke="#000000" d="M2491,-198.0267C2491,-218.7672 2491,-250 2491,-250 2491,-250 2641.7924,-250 2641.7924,-250"/>
<polygon fill="#000000" stroke="#000000" points="2641.7925,-253.5001 2651.7924,-250 2641.7924,-246.5001 2641.7925,-253.5001"/>
</g>
<!-- PageNotFoundComponent -->
<g id="node19" class="node">
<title>PageNotFoundComponent</title>
<polygon fill="#ffffb3" stroke="#000000" points="1092.8243,-122 927.1757,-122 927.1757,-86 1092.8243,-86 1092.8243,-122"/>
<text text-anchor="middle" x="1010" y="-99.8" font-family="Times,serif" font-size="14.00" fill="#000000">PageNotFoundComponent</text>
</g>
<!-- PageNotFoundComponent&#45;&gt;PageNotFoundModule -->
<g id="edge19" class="edge">
<title>PageNotFoundComponent&#45;&gt;PageNotFoundModule</title>
<path fill="none" stroke="#000000" d="M962.2746,-122.0439C962.2746,-134.5633 962.2746,-149 962.2746,-149 962.2746,-149 844.8854,-149 844.8854,-149 844.8854,-149 844.8854,-151.9672 844.8854,-151.9672"/>
<polygon fill="#000000" stroke="#000000" points="841.3854,-151.9671 844.8854,-161.9672 848.3854,-151.9672 841.3854,-151.9671"/>
</g>
<!-- PageNotFoundRoutingModule -->
<g id="node20" class="node">
<title>PageNotFoundRoutingModule</title>
<polygon fill="#8dd3c7" stroke="#000000" points="903.1595,-122 900.1595,-126 879.1595,-126 876.1595,-122 714.8405,-122 714.8405,-86 903.1595,-86 903.1595,-122"/>
<text text-anchor="middle" x="809" y="-99.8" font-family="Times,serif" font-size="14.00" fill="#000000">PageNotFoundRoutingModule</text>
</g>
<!-- PageNotFoundRoutingModule&#45;&gt;PageNotFoundModule -->
<g id="edge20" class="edge">
<title>PageNotFoundRoutingModule&#45;&gt;PageNotFoundModule</title>
<path fill="none" stroke="#000000" d="M809,-122.0109C809,-122.0109 809,-151.855 809,-151.855"/>
<polygon fill="#000000" stroke="#000000" points="805.5001,-151.8549 809,-161.855 812.5001,-151.855 805.5001,-151.8549"/>
</g>
<!-- FormComponent -->
<g id="node22" class="node">
<title>FormComponent</title>
<polygon fill="#ffffb3" stroke="#000000" points="2081.6667,-274 1970.3333,-274 1970.3333,-238 2081.6667,-238 2081.6667,-274"/>
<text text-anchor="middle" x="2026" y="-251.8" font-family="Times,serif" font-size="14.00" fill="#000000">FormComponent</text>
</g>
<!-- FormComponent&#45;&gt;SharedModule -->
<g id="edge22" class="edge">
<title>FormComponent&#45;&gt;SharedModule</title>
<path fill="none" stroke="#000000" d="M2026,-237.6772C2026,-214.3398 2026,-177 2026,-177 2026,-177 1007.4758,-177 1007.4758,-177"/>
<polygon fill="#000000" stroke="#000000" points="1007.4759,-173.5001 997.4758,-177 1007.4758,-180.5001 1007.4759,-173.5001"/>
</g>
<!-- FormConnectComponent -->
<g id="node23" class="node">
<title>FormConnectComponent</title>
<polygon fill="#ffffb3" stroke="#000000" points="1952.3229,-274 1793.6771,-274 1793.6771,-238 1952.3229,-238 1952.3229,-274"/>
<text text-anchor="middle" x="1873" y="-251.8" font-family="Times,serif" font-size="14.00" fill="#000000">FormConnectComponent</text>
</g>
<!-- FormConnectComponent&#45;&gt;SharedModule -->
<g id="edge23" class="edge">
<title>FormConnectComponent&#45;&gt;SharedModule</title>
<path fill="none" stroke="#000000" d="M1873,-237.9891C1873,-215.5148 1873,-180 1873,-180 1873,-180 1007.405,-180 1007.405,-180"/>
<polygon fill="#000000" stroke="#000000" points="1007.405,-176.5001 997.405,-180 1007.405,-183.5001 1007.405,-176.5001"/>
</g>
<!-- NavComponent -->
<g id="node24" class="node">
<title>NavComponent</title>
<polygon fill="#ffffb3" stroke="#000000" points="2383.1542,-274 2278.8458,-274 2278.8458,-238 2383.1542,-238 2383.1542,-274"/>
<text text-anchor="middle" x="2331" y="-251.8" font-family="Times,serif" font-size="14.00" fill="#000000">NavComponent</text>
</g>
<!-- NavComponent&#45;&gt;SharedModule -->
<g id="edge24" class="edge">
<title>NavComponent&#45;&gt;SharedModule</title>
<path fill="none" stroke="#000000" d="M2331,-237.7616C2331,-212.5171 2331,-170 2331,-170 2331,-170 1007.2217,-170 1007.2217,-170"/>
<polygon fill="#000000" stroke="#000000" points="1007.2217,-166.5001 997.2217,-170 1007.2217,-173.5001 1007.2217,-166.5001"/>
</g>
<!-- ReactiveFormComponent -->
<g id="node25" class="node">
<title>ReactiveFormComponent</title>
<polygon fill="#ffffb3" stroke="#000000" points="2260.1428,-274 2099.8572,-274 2099.8572,-238 2260.1428,-238 2260.1428,-274"/>
<text text-anchor="middle" x="2180" y="-251.8" font-family="Times,serif" font-size="14.00" fill="#000000">ReactiveFormComponent</text>
</g>
<!-- ReactiveFormComponent&#45;&gt;SharedModule -->
<g id="edge25" class="edge">
<title>ReactiveFormComponent&#45;&gt;SharedModule</title>
<path fill="none" stroke="#000000" d="M2180,-237.9902C2180,-213.5793 2180,-173 2180,-173 2180,-173 1007.4383,-173 1007.4383,-173"/>
<polygon fill="#000000" stroke="#000000" points="1007.4383,-169.5001 997.4383,-173 1007.4382,-176.5001 1007.4383,-169.5001"/>
</g>
</g>
</svg>
