<?xml version="1.0" encoding="UTF-8" standalone="no"?>
<!DOCTYPE svg PUBLIC "-//W3C//DTD SVG 1.1//EN"
 "http://www.w3.org/Graphics/SVG/1.1/DTD/svg11.dtd">
<!-- Generated by graphviz version 2.40.1 (20161225.0304)
 -->
<!-- Title: dependencies Pages: 1 -->
<svg width="659pt" height="284pt"
 viewBox="0.00 0.00 659.00 284.00" xmlns="http://www.w3.org/2000/svg" xmlns:xlink="http://www.w3.org/1999/xlink">
<g id="graph0" class="graph" transform="scale(1 1) rotate(0) translate(4 280)">
<title>dependencies</title>
<polygon fill="#ffffff" stroke="transparent" points="-4,4 -4,-280 655,-280 655,4 -4,4"/>
<text text-anchor="start" x="304.5091" y="-42.4" font-family="sans-serif" font-weight="bold" font-size="14.00" fill="#000000">Legend</text>
<polygon fill="#ffffb3" stroke="transparent" points="91.5,-10 91.5,-30 111.5,-30 111.5,-10 91.5,-10"/>
<text text-anchor="start" x="115.129" y="-15.4" font-family="sans-serif" font-size="14.00" fill="#000000"> &#160;Declarations</text>
<polygon fill="#8dd3c7" stroke="transparent" points="204.5,-10 204.5,-30 224.5,-30 224.5,-10 204.5,-10"/>
<text text-anchor="start" x="228.2251" y="-15.4" font-family="sans-serif" font-size="14.00" fill="#000000"> &#160;Module</text>
<polygon fill="#80b1d3" stroke="transparent" points="290.5,-10 290.5,-30 310.5,-30 310.5,-10 290.5,-10"/>
<text text-anchor="start" x="314.2812" y="-15.4" font-family="sans-serif" font-size="14.00" fill="#000000"> &#160;Bootstrap</text>
<polygon fill="#fdb462" stroke="transparent" points="387.5,-10 387.5,-30 407.5,-30 407.5,-10 387.5,-10"/>
<text text-anchor="start" x="411.1732" y="-15.4" font-family="sans-serif" font-size="14.00" fill="#000000"> &#160;Providers</text>
<polygon fill="#fb8072" stroke="transparent" points="483.5,-10 483.5,-30 503.5,-30 503.5,-10 483.5,-10"/>
<text text-anchor="start" x="507.2258" y="-15.4" font-family="sans-serif" font-size="14.00" fill="#000000"> &#160;Exports</text>
<g id="clust1" class="cluster">
<title>cluster_SharedModule</title>
<polygon fill="none" stroke="#000000" stroke-dasharray="1,5" points="8,-70 8,-268 643,-268 643,-70 8,-70"/>
</g>
<g id="clust2" class="cluster">
<title>cluster_SharedModule_declarations</title>
<polygon fill="none" stroke="#000000" points="24,-78 24,-130 629,-130 629,-78 24,-78"/>
</g>
<g id="clust8" class="cluster">
<title>cluster_SharedModule_exports</title>
<polygon fill="none" stroke="#000000" points="16,-208 16,-260 635,-260 635,-208 16,-208"/>
</g>
<!-- FormComponent -->
<g id="node1" class="node">
<title>FormComponent</title>
<polygon fill="#ffffb3" stroke="#000000" points="620.6667,-122 509.3333,-122 509.3333,-86 620.6667,-86 620.6667,-122"/>
<text text-anchor="middle" x="565" y="-99.8" font-family="Times,serif" font-size="14.00" fill="#000000">FormComponent</text>
</g>
<!-- SharedModule -->
<g id="node5" class="node">
<title>SharedModule</title>
<polygon fill="#8dd3c7" stroke="#000000" points="314.4231,-187 311.4231,-191 290.4231,-191 287.4231,-187 215.5769,-187 215.5769,-151 314.4231,-151 314.4231,-187"/>
<text text-anchor="middle" x="265" y="-164.8" font-family="Times,serif" font-size="14.00" fill="#000000">SharedModule</text>
</g>
<!-- FormComponent&#45;&gt;SharedModule -->
<g id="edge1" class="edge">
<title>FormComponent&#45;&gt;SharedModule</title>
<path fill="none" stroke="#000000" d="M584.361,-122.2667C584.361,-140.5552 584.361,-166 584.361,-166 584.361,-166 324.5498,-166 324.5498,-166"/>
<polygon fill="#000000" stroke="#000000" points="324.5498,-162.5001 314.5498,-166 324.5497,-169.5001 324.5498,-162.5001"/>
</g>
<!-- FormConnectComponent -->
<g id="node2" class="node">
<title>FormConnectComponent</title>
<polygon fill="#ffffb3" stroke="#000000" points="491.3229,-122 332.6771,-122 332.6771,-86 491.3229,-86 491.3229,-122"/>
<text text-anchor="middle" x="412" y="-99.8" font-family="Times,serif" font-size="14.00" fill="#000000">FormConnectComponent</text>
</g>
<!-- FormConnectComponent&#45;&gt;SharedModule -->
<g id="edge2" class="edge">
<title>FormConnectComponent&#45;&gt;SharedModule</title>
<path fill="none" stroke="#000000" d="M438.3871,-122.0091C438.3871,-138.0494 438.3871,-159 438.3871,-159 438.3871,-159 324.222,-159 324.222,-159"/>
<polygon fill="#000000" stroke="#000000" points="324.222,-155.5001 314.222,-159 324.222,-162.5001 324.222,-155.5001"/>
</g>
<!-- NavComponent -->
<g id="node3" class="node">
<title>NavComponent</title>
<polygon fill="#ffffb3" stroke="#000000" points="315.1542,-122 210.8458,-122 210.8458,-86 315.1542,-86 315.1542,-122"/>
<text text-anchor="middle" x="263" y="-99.8" font-family="Times,serif" font-size="14.00" fill="#000000">NavComponent</text>
</g>
<!-- NavComponent&#45;&gt;SharedModule -->
<g id="edge3" class="edge">
<title>NavComponent&#45;&gt;SharedModule</title>
<path fill="none" stroke="#000000" d="M265,-122.1061C265,-122.1061 265,-140.991 265,-140.991"/>
<polygon fill="#000000" stroke="#000000" points="261.5001,-140.9909 265,-150.991 268.5001,-140.991 261.5001,-140.9909"/>
</g>
<!-- ReactiveFormComponent -->
<g id="node4" class="node">
<title>ReactiveFormComponent</title>
<polygon fill="#ffffb3" stroke="#000000" points="192.1428,-122 31.8572,-122 31.8572,-86 192.1428,-86 192.1428,-122"/>
<text text-anchor="middle" x="112" y="-99.8" font-family="Times,serif" font-size="14.00" fill="#000000">ReactiveFormComponent</text>
</g>
<!-- ReactiveFormComponent&#45;&gt;SharedModule -->
<g id="edge4" class="edge">
<title>ReactiveFormComponent&#45;&gt;SharedModule</title>
<path fill="none" stroke="#000000" d="M135.9404,-122.0225C135.9404,-139.3734 135.9404,-163 135.9404,-163 135.9404,-163 205.4713,-163 205.4713,-163"/>
<polygon fill="#000000" stroke="#000000" points="205.4713,-166.5001 215.4713,-163 205.4713,-159.5001 205.4713,-166.5001"/>
</g>
<!-- FormComponent  -->
<g id="node6" class="node">
<title>FormComponent </title>
<polygon fill="#fb8072" stroke="#000000" points="626.6663,-252 511.3337,-252 511.3337,-216 626.6663,-216 626.6663,-252"/>
<text text-anchor="middle" x="569" y="-229.8" font-family="Times,serif" font-size="14.00" fill="#000000">FormComponent </text>
</g>
<!-- SharedModule&#45;&gt;FormComponent  -->
<g id="edge5" class="edge">
<title>SharedModule&#45;&gt;FormComponent </title>
<path fill="none" stroke="#000000" stroke-dasharray="5,2" d="M314.2755,-173C395.3251,-173 547.889,-173 547.889,-173 547.889,-173 547.889,-205.698 547.889,-205.698"/>
<polygon fill="#000000" stroke="#000000" points="544.3891,-205.698 547.889,-215.698 551.3891,-205.698 544.3891,-205.698"/>
</g>
<!-- FormConnectComponent  -->
<g id="node7" class="node">
<title>FormConnectComponent </title>
<polygon fill="#fb8072" stroke="#000000" points="493.8227,-252 332.1773,-252 332.1773,-216 493.8227,-216 493.8227,-252"/>
<text text-anchor="middle" x="413" y="-229.8" font-family="Times,serif" font-size="14.00" fill="#000000">FormConnectComponent </text>
</g>
<!-- SharedModule&#45;&gt;FormConnectComponent  -->
<g id="edge6" class="edge">
<title>SharedModule&#45;&gt;FormConnectComponent </title>
<path fill="none" stroke="#000000" stroke-dasharray="5,2" d="M314.4059,-180C347.7148,-180 385.6129,-180 385.6129,-180 385.6129,-180 385.6129,-205.7181 385.6129,-205.7181"/>
<polygon fill="#000000" stroke="#000000" points="382.113,-205.718 385.6129,-215.7181 389.113,-205.7181 382.113,-205.718"/>
</g>
<!-- NavComponent  -->
<g id="node8" class="node">
<title>NavComponent </title>
<polygon fill="#fb8072" stroke="#000000" points="314.1537,-252 205.8463,-252 205.8463,-216 314.1537,-216 314.1537,-252"/>
<text text-anchor="middle" x="260" y="-229.8" font-family="Times,serif" font-size="14.00" fill="#000000">NavComponent </text>
</g>
<!-- SharedModule&#45;&gt;NavComponent  -->
<g id="edge7" class="edge">
<title>SharedModule&#45;&gt;NavComponent </title>
<path fill="none" stroke="#000000" stroke-dasharray="5,2" d="M264.9329,-187.1061C264.9329,-187.1061 264.9329,-205.991 264.9329,-205.991"/>
<polygon fill="#000000" stroke="#000000" points="261.4329,-205.9909 264.9329,-215.991 268.4329,-205.991 261.4329,-205.9909"/>
</g>
<!-- ReactiveFormComponent  -->
<g id="node9" class="node">
<title>ReactiveFormComponent </title>
<polygon fill="#fb8072" stroke="#000000" points="188.1425,-252 23.8575,-252 23.8575,-216 188.1425,-216 188.1425,-252"/>
<text text-anchor="middle" x="106" y="-229.8" font-family="Times,serif" font-size="14.00" fill="#000000">ReactiveFormComponent </text>
</g>
<!-- SharedModule&#45;&gt;ReactiveFormComponent  -->
<g id="edge8" class="edge">
<title>SharedModule&#45;&gt;ReactiveFormComponent </title>
<path fill="none" stroke="#000000" stroke-dasharray="5,2" d="M215.4889,-175C161.8418,-175 83.8096,-175 83.8096,-175 83.8096,-175 83.8096,-205.9775 83.8096,-205.9775"/>
<polygon fill="#000000" stroke="#000000" points="80.3097,-205.9774 83.8096,-215.9775 87.3097,-205.9775 80.3097,-205.9774"/>
</g>
</g>
</svg>
