<?xml version="1.0" encoding="UTF-8" standalone="no"?>
<!DOCTYPE svg PUBLIC "-//W3C//DTD SVG 1.1//EN"
 "http://www.w3.org/Graphics/SVG/1.1/DTD/svg11.dtd">
<!-- Generated by graphviz version 2.40.1 (20161225.0304)
 -->
<!-- Title: dependencies Pages: 1 -->
<svg width="829pt" height="284pt"
 viewBox="0.00 0.00 829.00 284.00" xmlns="http://www.w3.org/2000/svg" xmlns:xlink="http://www.w3.org/1999/xlink">
<g id="graph0" class="graph" transform="scale(1 1) rotate(0) translate(4 280)">
<title>dependencies</title>
<polygon fill="#ffffff" stroke="transparent" points="-4,4 -4,-280 825,-280 825,4 -4,4"/>
<text text-anchor="start" x="389.5091" y="-42.4" font-family="sans-serif" font-weight="bold" font-size="14.00" fill="#000000">Legend</text>
<polygon fill="#ffffb3" stroke="transparent" points="176.5,-10 176.5,-30 196.5,-30 196.5,-10 176.5,-10"/>
<text text-anchor="start" x="200.129" y="-15.4" font-family="sans-serif" font-size="14.00" fill="#000000"> &#160;Declarations</text>
<polygon fill="#8dd3c7" stroke="transparent" points="289.5,-10 289.5,-30 309.5,-30 309.5,-10 289.5,-10"/>
<text text-anchor="start" x="313.2251" y="-15.4" font-family="sans-serif" font-size="14.00" fill="#000000"> &#160;Module</text>
<polygon fill="#80b1d3" stroke="transparent" points="375.5,-10 375.5,-30 395.5,-30 395.5,-10 375.5,-10"/>
<text text-anchor="start" x="399.2812" y="-15.4" font-family="sans-serif" font-size="14.00" fill="#000000"> &#160;Bootstrap</text>
<polygon fill="#fdb462" stroke="transparent" points="472.5,-10 472.5,-30 492.5,-30 492.5,-10 472.5,-10"/>
<text text-anchor="start" x="496.1732" y="-15.4" font-family="sans-serif" font-size="14.00" fill="#000000"> &#160;Providers</text>
<polygon fill="#fb8072" stroke="transparent" points="568.5,-10 568.5,-30 588.5,-30 588.5,-10 568.5,-10"/>
<text text-anchor="start" x="592.2258" y="-15.4" font-family="sans-serif" font-size="14.00" fill="#000000"> &#160;Exports</text>
<g id="clust1" class="cluster">
<title>cluster_ItemsModule</title>
<polygon fill="none" stroke="#000000" stroke-dasharray="1,5" points="8,-70 8,-268 813,-268 813,-70 8,-70"/>
</g>
<g id="clust2" class="cluster">
<title>cluster_ItemsModule_declarations</title>
<polygon fill="none" stroke="#000000" points="292,-78 292,-130 805,-130 805,-78 292,-78"/>
</g>
<g id="clust7" class="cluster">
<title>cluster_ItemsModule_imports</title>
<polygon fill="none" stroke="#000000" points="16,-78 16,-130 284,-130 284,-78 16,-78"/>
</g>
<g id="clust8" class="cluster">
<title>cluster_ItemsModule_exports</title>
<polygon fill="none" stroke="#000000" points="337,-208 337,-260 491,-260 491,-208 337,-208"/>
</g>
<!-- AddComponent -->
<g id="node1" class="node">
<title>AddComponent</title>
<polygon fill="#ffffb3" stroke="#000000" points="796.9399,-122 691.0601,-122 691.0601,-86 796.9399,-86 796.9399,-122"/>
<text text-anchor="middle" x="744" y="-99.8" font-family="Times,serif" font-size="14.00" fill="#000000">AddComponent</text>
</g>
<!-- ItemsModule -->
<g id="node5" class="node">
<title>ItemsModule</title>
<polygon fill="#8dd3c7" stroke="#000000" points="459.1515,-187 456.1515,-191 435.1515,-191 432.1515,-187 368.8485,-187 368.8485,-151 459.1515,-151 459.1515,-187"/>
<text text-anchor="middle" x="414" y="-164.8" font-family="Times,serif" font-size="14.00" fill="#000000">ItemsModule</text>
</g>
<!-- AddComponent&#45;&gt;ItemsModule -->
<g id="edge1" class="edge">
<title>AddComponent&#45;&gt;ItemsModule</title>
<path fill="none" stroke="#000000" d="M744,-122.2843C744,-143.3211 744,-175 744,-175 744,-175 469.1932,-175 469.1932,-175"/>
<polygon fill="#000000" stroke="#000000" points="469.1932,-171.5001 459.1932,-175 469.1931,-178.5001 469.1932,-171.5001"/>
</g>
<!-- ItemComponent -->
<g id="node2" class="node">
<title>ItemComponent</title>
<polygon fill="#ffffb3" stroke="#000000" points="673.4888,-122 566.5112,-122 566.5112,-86 673.4888,-86 673.4888,-122"/>
<text text-anchor="middle" x="620" y="-99.8" font-family="Times,serif" font-size="14.00" fill="#000000">ItemComponent</text>
</g>
<!-- ItemComponent&#45;&gt;ItemsModule -->
<g id="edge2" class="edge">
<title>ItemComponent&#45;&gt;ItemsModule</title>
<path fill="none" stroke="#000000" d="M620,-122.0225C620,-139.3734 620,-163 620,-163 620,-163 469.2076,-163 469.2076,-163"/>
<polygon fill="#000000" stroke="#000000" points="469.2076,-159.5001 459.2076,-163 469.2075,-166.5001 469.2076,-159.5001"/>
</g>
<!-- ListItemsComponent -->
<g id="node3" class="node">
<title>ListItemsComponent</title>
<polygon fill="#ffffb3" stroke="#000000" points="548.212,-122 413.788,-122 413.788,-86 548.212,-86 548.212,-122"/>
<text text-anchor="middle" x="481" y="-99.8" font-family="Times,serif" font-size="14.00" fill="#000000">ListItemsComponent</text>
</g>
<!-- ListItemsComponent&#45;&gt;ItemsModule -->
<g id="edge3" class="edge">
<title>ListItemsComponent&#45;&gt;ItemsModule</title>
<path fill="none" stroke="#000000" d="M436.6098,-122.1061C436.6098,-122.1061 436.6098,-140.991 436.6098,-140.991"/>
<polygon fill="#000000" stroke="#000000" points="433.1098,-140.9909 436.6098,-150.991 440.1098,-140.991 433.1098,-140.9909"/>
</g>
<!-- StateDirective -->
<g id="node4" class="node">
<title>StateDirective</title>
<polygon fill="#ffffb3" stroke="#000000" points="396.0758,-122 299.9242,-122 299.9242,-86 396.0758,-86 396.0758,-122"/>
<text text-anchor="middle" x="348" y="-99.8" font-family="Times,serif" font-size="14.00" fill="#000000">StateDirective</text>
</g>
<!-- StateDirective&#45;&gt;ItemsModule -->
<g id="edge4" class="edge">
<title>StateDirective&#45;&gt;ItemsModule</title>
<path fill="none" stroke="#000000" d="M382.3563,-122.1061C382.3563,-122.1061 382.3563,-140.991 382.3563,-140.991"/>
<polygon fill="#000000" stroke="#000000" points="378.8563,-140.9909 382.3563,-150.991 385.8563,-140.991 378.8563,-140.9909"/>
</g>
<!-- ListItemsComponent  -->
<g id="node8" class="node">
<title>ListItemsComponent </title>
<polygon fill="#fb8072" stroke="#000000" points="482.7121,-252 345.2879,-252 345.2879,-216 482.7121,-216 482.7121,-252"/>
<text text-anchor="middle" x="414" y="-229.8" font-family="Times,serif" font-size="14.00" fill="#000000">ListItemsComponent </text>
</g>
<!-- ItemsModule&#45;&gt;ListItemsComponent  -->
<g id="edge7" class="edge">
<title>ItemsModule&#45;&gt;ListItemsComponent </title>
<path fill="none" stroke="#000000" stroke-dasharray="5,2" d="M414,-187.1061C414,-187.1061 414,-205.991 414,-205.991"/>
<polygon fill="#000000" stroke="#000000" points="410.5001,-205.9909 414,-215.991 417.5001,-205.991 410.5001,-205.9909"/>
</g>
<!-- ItemsRoutingModule -->
<g id="node6" class="node">
<title>ItemsRoutingModule</title>
<polygon fill="#8dd3c7" stroke="#000000" points="275.7688,-122 272.7688,-126 251.7688,-126 248.7688,-122 140.2312,-122 140.2312,-86 275.7688,-86 275.7688,-122"/>
<text text-anchor="middle" x="208" y="-99.8" font-family="Times,serif" font-size="14.00" fill="#000000">ItemsRoutingModule</text>
</g>
<!-- ItemsRoutingModule&#45;&gt;ItemsModule -->
<g id="edge5" class="edge">
<title>ItemsRoutingModule&#45;&gt;ItemsModule</title>
<path fill="none" stroke="#000000" d="M208,-122.0225C208,-139.3734 208,-163 208,-163 208,-163 358.7924,-163 358.7924,-163"/>
<polygon fill="#000000" stroke="#000000" points="358.7925,-166.5001 368.7924,-163 358.7924,-159.5001 358.7925,-166.5001"/>
</g>
<!-- SharedModule -->
<g id="node7" class="node">
<title>SharedModule</title>
<polygon fill="#8dd3c7" stroke="#000000" points="122.4231,-122 119.4231,-126 98.4231,-126 95.4231,-122 23.5769,-122 23.5769,-86 122.4231,-86 122.4231,-122"/>
<text text-anchor="middle" x="73" y="-99.8" font-family="Times,serif" font-size="14.00" fill="#000000">SharedModule</text>
</g>
<!-- SharedModule&#45;&gt;ItemsModule -->
<g id="edge6" class="edge">
<title>SharedModule&#45;&gt;ItemsModule</title>
<path fill="none" stroke="#000000" d="M73,-122.2843C73,-143.3211 73,-175 73,-175 73,-175 358.7178,-175 358.7178,-175"/>
<polygon fill="#000000" stroke="#000000" points="358.7179,-178.5001 368.7178,-175 358.7178,-171.5001 358.7179,-178.5001"/>
</g>
</g>
</svg>
